<?xml version="1.0" standalone="no"?>
<!DOCTYPE svg PUBLIC "-//W3C//DTD SVG 20010904//EN"
 "http://www.w3.org/TR/2001/REC-SVG-20010904/DTD/svg10.dtd">
<svg version="1.0" xmlns="http://www.w3.org/2000/svg"
 width="833.000000pt" height="1023.000000pt" viewBox="0 0 833.000000 1023.000000"
 preserveAspectRatio="xMidYMid meet">

<g transform="translate(0.000000,1023.000000) scale(0.100000,-0.100000)"
fill="#000000" stroke="none">
<path d="M6035 10214 c-489 -76 -1012 -373 -1353 -769 -288 -335 -494 -777
-542 -1167 -15 -121 -10 -372 8 -390 23 -23 269 -17 390 10 418 93 836 349
1119 687 299 356 489 781 542 1215 12 94 15 312 5 384 -7 45 -7 46 -43 45 -20
-1 -76 -7 -126 -15z"/>
<path d="M5900 7754 c-310 -29 -547 -94 -1045 -287 -410 -159 -502 -183 -668
-174 -124 7 -243 40 -483 133 -497 194 -643 242 -849 280 -139 25 -464 26
-624 1 -949 -149 -1705 -813 -2039 -1792 -79 -230 -135 -486 -169 -770 -24
-206 -24 -721 0 -950 83 -776 301 -1523 643 -2207 191 -381 353 -635 682
-1068 524 -689 914 -946 1392 -916 206 13 353 55 685 193 447 187 731 243
1083 215 263 -21 411 -61 736 -199 331 -140 459 -176 674 -192 524 -40 932
206 1425 857 357 472 587 854 786 1303 82 188 210 535 200 543 -2 1 -52 26
-112 55 -281 138 -591 389 -789 637 -401 505 -556 1178 -422 1842 111 552 447
1050 952 1411 56 40 102 75 102 78 0 2 -26 39 -59 81 -391 512 -935 819 -1607
907 -115 15 -412 26 -494 19z"/>
</g>
</svg>
